<?xml version="1.0" encoding="UTF-8"?>
<!DOCTYPE svg PUBLIC "-//W3C//DTD SVG 1.1//EN" "http://www.w3.org/Graphics/SVG/1.1/DTD/svg11.dtd">
<!-- Creator: CorelDRAW 2018 (64 Bit) -->
<svg xmlns="http://www.w3.org/2000/svg" xml:space="preserve" width="260.307mm" height="260.331mm" version="1.1" style="shape-rendering:geometricPrecision; text-rendering:geometricPrecision; image-rendering:optimizeQuality; fill-rule:evenodd; clip-rule:evenodd"
viewBox="0 0 4106.62 4107"
 xmlns:xlink="http://www.w3.org/1999/xlink">
 <defs>
  <style type="text/css">
   <![CDATA[
    .str0 {stroke:#F3C1C1;stroke-width:3.16;stroke-miterlimit:22.9256}
    .fil7 {fill:#FEFEFE}
    .fil10 {fill:#FFFCEB}
    .fil5 {fill:#FFF9E1}
    .fil2 {fill:#F1F1F1}
    .fil9 {fill:#F1F1F1}
    .fil8 {fill:#68708C}
    .fil1 {fill:teal}
    .fil0 {fill:#F3C1C1}
    .fil3 {fill:#FF6961}
    .fil4 {fill:#FF6961}
    .fil11 {fill:#FEFEFE;fill-rule:nonzero}
    .fil6 {fill:url(#id2)}
   ]]>
  </style>
    <clipPath id="id0">
     <path d="M-0 0l4106.62 0 0 4107 -4106.62 0 0 -4107z"/>
    </clipPath>
    <clipPath id="id1">
     <path d="M608.7 1899.09l2886.18 0 0 441.74 -2886.18 0 0 -441.74z"/>
    </clipPath>
  <radialGradient id="id2" gradientUnits="userSpaceOnUse" gradientTransform="matrix(2.85033 -0 -0 1.64103 -5771 -1998)" cx="3119.11" cy="3117.42" r="19.3" fx="3119.11" fy="3117.42">
   <stop offset="0" style="stop-opacity:1; stop-color:#0E87C4"/>
   <stop offset="1" style="stop-opacity:1; stop-color:#3BB5F3"/>
  </radialGradient>
 </defs>
 <g id="Capa_x0020_1">
  <metadata id="CorelCorpID_0Corel-Layer"/>
  <g id="_2997856693088">
   <g style="clip-path:url(#id0)">
    <image x="-0" y="0" width="4106.62" height="4107" xlink:href="Logo_Images\Logo_ImgID1.png"/>
   </g>
  </g>
  <circle class="fil0" cx="2053.45" cy="2053.5" r="1579.61"/>
  <polygon class="fil1" points="2485.15,3097.28 1718.03,3097.28 1710.71,3241.43 2492.47,3241.43 "/>
  <polygon class="fil2" points="1718.02,3097.28 2485.15,3097.28 2464.29,2686.53 1738.86,2686.53 "/>
  <polygon class="fil3" points="1738.86,2686.53 2464.32,2686.53 2450.19,2407.87 1753,2407.87 "/>
  <polygon class="fil2" points="1753,2407.87 2450.19,2407.87 2435.68,2121.89 1767.5,2121.89 "/>
  <polygon class="fil4" points="1767.5,2121.89 2435.68,2121.89 2421.19,1836.17 1781.99,1836.17 "/>
  <polygon class="fil2" points="1781.99,1836.17 2421.19,1836.17 2406.7,1550.57 1796.48,1550.57 "/>
  <polygon class="fil4" points="1796.48,1550.57 2406.7,1550.57 2391.62,1253.35 1811.56,1253.35 "/>
  <path class="fil5" d="M3096.33 3239.95l-2085.76 0c278.22,244.74 643.22,393.17 1042.88,393.17 399.66,0 764.66,-148.42 1042.88,-393.17z"/>
  <g id="_2997864632688">
   <path class="fil6" d="M3407.83 2866.89c-117.88,-40.87 -294.55,2.37 -324.41,77.18 41.43,-8.02 66.78,-18.97 104.11,10.79 22.1,17.62 42.02,49.95 41.07,92.08 -0.89,39.11 -20.37,71.61 -36.97,96.81 13.36,-12.99 27.57,-25.68 40.67,-38.77 59.04,-66.15 112.59,-137.3 159.94,-212.73 0.98,-3.87 12.24,-19.32 15.59,-25.36zm-26.91 65l4.22 -7.91"/>
   <path class="fil7" d="M3395.22 2886.91c-24.13,-12.66 -66.95,-25.47 -93.59,-28.67 -170.14,-20.51 -148.56,175.52 -276.14,105.93l-22.87 -11.18c0.29,40.13 -32.13,92.03 -110.11,37.78 -24.26,116.69 -183.06,53.16 -66.46,-113.37 142.96,-204.18 455.34,-193.84 614.47,-67.48 -0.81,4.56 -2.13,8.95 -3.83,13.19l-41.48 63.79z"/>
  </g>
  <rect class="fil8" x="2057.49" y="2618.93" width="112.24" height="138.83" rx="20.19" ry="20.19"/>
  <rect class="fil8" x="2057.49" y="2052.48" width="112.24" height="138.83" rx="20.15" ry="20.15"/>
  <rect class="fil8" x="2057.49" y="1477.24" width="112.24" height="138.83" rx="20.15" ry="20.15"/>
  <rect class="fil9" x="1941.99" y="901.15" width="329.71" height="352.19"/>
  <path class="fil4" d="M2105.18 899.38l-157.83 0c0,-87.18 70.66,-157.83 157.83,-157.83 87.18,0 157.83,70.66 157.83,157.83l-157.83 0z"/>
  <rect class="fil8" x="2057.49" y="2971.71" width="112.24" height="138.83" rx="19.13" ry="19.13"/>
  <path class="fil10" d="M2271.7 1132.61l1235.64 302.28c-82.71,-194.12 -203.14,-368.31 -352.12,-513.33l-883.52 137.39 0 73.65z"/>
  <rect class="fil0 str0" x="1073.85" y="1928.51" width="2112.12" height="364.24"/>
  <g id="_2997864637008">
   <g style="clip-path:url(#id1)">
    <image x="608.7" y="1899.09" width="2886.18" height="441.74" xlink:href="Logo_Images\Logo_ImgID2.png"/>
   </g>
  </g>
  <path class="fil11" d="M880.17 2055.64l-46.87 114.87 108.31 0c14.45,0 21.7,5.01 21.7,15.04 0,7.09 -2.56,12.59 -7.68,16.53 -5.07,3.89 -12.16,5.87 -21.22,5.87l-116.25 0 -1.87 4.37c-7.31,16.32 -13.01,27.78 -17.17,34.4 -4.16,6.56 -9.6,12.96 -16.26,19.14 -17.39,16 -37.33,24 -59.94,24 -18.34,0 -33.44,-5.49 -45.38,-16.48 -11.89,-10.99 -17.86,-24.9 -17.86,-41.86 0,-10.56 2.56,-20.42 7.63,-29.65 5.12,-9.17 12.05,-16.37 20.8,-21.49 11.31,-6.56 26.72,-9.86 46.18,-9.86l55.14 0 46.71 -114.87 -18.77 0 -4.21 0c-11.68,0 -17.49,-5.17 -17.49,-15.52 0,-6.77 2.56,-12.1 7.68,-16.05 5.07,-3.89 12.16,-5.87 21.22,-5.87l26.72 0 7.2 -17.6c13.6,-33.7 34.45,-50.55 62.39,-50.55 14.29,0 26.13,4.48 35.62,13.49 9.44,9.01 14.19,20.32 14.19,33.86 0,17.28 -6.88,31.3 -20.58,42.07 -13.7,10.77 -31.57,16.16 -53.49,16.16l-16.42 0zm15.14 -37.43l7.2 0c7.73,0 14.35,-1.92 19.89,-5.81 5.49,-3.84 8.27,-8.59 8.27,-14.13 0,-8.27 -3.89,-12.37 -11.63,-12.37 -7.04,0 -13.49,7.2 -19.36,21.65l-4.37 10.67zm-121.21 189.74l-41.11 0c-20.32,0 -30.45,7.25 -30.45,21.81 0,5.97 2.24,10.99 6.72,15.04 4.48,4 10.08,6.02 16.8,6.02 9.28,0 18.19,-3.84 26.77,-11.52 8.59,-7.73 15.68,-18.19 21.28,-31.36zm214.21 -76.47l17.65 0c13.07,0 19.57,4.64 19.57,13.86 0,6.29 -2.29,11.25 -6.93,14.77 -4.59,3.52 -11.04,5.28 -19.36,5.28l-24.85 0c-9.17,0 -16.37,-1.87 -21.6,-5.65 -5.28,-3.73 -7.89,-8.85 -7.89,-15.3 0,-3.47 1.12,-7.84 3.31,-13.12l25.81 -63.51 1.71 -4.43c4.8,-11.78 12.48,-17.65 23.14,-17.65 4.37,0 8.16,1.44 11.36,4.37 3.15,2.93 4.75,6.45 4.75,10.51 0,3.36 -1.39,8.48 -4.21,15.36l-22.45 55.51zm20.58 -135.66c6.08,0 11.2,2.13 15.41,6.35 4.21,4.21 6.35,9.33 6.35,15.41 0,6.03 -2.13,11.2 -6.35,15.41 -4.21,4.21 -9.33,6.35 -15.41,6.35 -6.02,0 -11.2,-2.13 -15.41,-6.35 -4.21,-4.21 -6.35,-9.39 -6.35,-15.41 0,-6.08 2.13,-11.2 6.35,-15.41 4.21,-4.21 9.39,-6.35 15.41,-6.35zm114.71 174.06l18.77 0c13.17,0 19.78,4.59 19.78,13.71 0,6.29 -2.35,11.25 -7.04,14.82 -4.64,3.57 -11.09,5.39 -19.36,5.39l-25.92 0 -6.56 16.16c-15.94,39.14 -39.25,58.71 -69.91,58.71 -16.05,0 -29.44,-4.96 -40.1,-14.82 -10.72,-9.92 -16.05,-22.34 -16.05,-37.22 0,-9.71 2.56,-18.77 7.73,-27.3 5.17,-8.48 12.27,-15.2 21.23,-20.21 11.09,-6.13 25.92,-9.23 44.63,-9.23l33.6 0 4.8 -12.32c-6.51,3.95 -12.69,5.92 -18.56,5.92 -11.09,0 -20.16,-3.84 -27.04,-11.57 -6.93,-7.68 -10.4,-17.7 -10.4,-30.08 0,-20 7.04,-37.97 21.06,-53.97 14.08,-16.05 29.81,-24.05 47.3,-24.05 12.8,0 22.4,4.1 28.74,12.26 4.9,-8.16 11.84,-12.26 20.8,-12.26 4.43,0 8.16,1.44 11.2,4.32 3.09,2.83 4.64,6.29 4.64,10.34 0,3.25 -1.33,8.21 -4.05,14.88l-39.3 96.52zm-20.16 -46.98l12.69 -30.77c1.01,-2.61 1.55,-4.75 1.55,-6.4 0,-3.09 -1.39,-5.71 -4.16,-7.79 -2.77,-2.08 -6.24,-3.09 -10.4,-3.09 -7.52,0 -14.72,4.27 -21.54,12.85 -6.88,8.53 -10.29,17.6 -10.29,27.14 0,10.88 5.12,16.32 15.36,16.32 8.91,0 14.45,-2.77 16.8,-8.27zm-32.96 80.9l-27.04 0c-9.44,0 -16.74,1.97 -21.97,5.97 -5.17,4 -7.79,9.6 -7.79,16.85 0,4.96 1.76,9.17 5.33,12.64 3.57,3.47 7.95,5.17 13.17,5.17 7.52,0 14.13,-2.99 19.78,-8.96 5.65,-6.02 11.78,-16.53 18.5,-31.68zm175.6 -151.34c10.88,-5.76 19.89,-8.64 26.98,-8.64 9.97,0 18.19,2.77 24.58,8.37 6.4,5.55 9.6,12.69 9.6,21.33 0,5.17 -1.23,10.88 -3.73,17.01l-16.37 40.95 17.97 0c13.17,0 19.73,4.64 19.73,13.86 0,6.29 -2.35,11.25 -6.99,14.77 -4.64,3.52 -11.09,5.28 -19.46,5.28l-31.41 0c-6.72,0 -12.32,-1.92 -16.9,-5.71 -4.53,-3.79 -6.83,-8.43 -6.83,-13.97 0,-3.73 1.23,-8.53 3.63,-14.35l14.5 -35.25c1.76,-4.48 2.67,-7.84 2.67,-10.13 0,-5.92 -3.95,-8.91 -11.89,-8.91 -10.61,0 -19.57,9.07 -26.88,27.14l-17.49 42.93c-5.55,13.65 -13.7,20.48 -24.58,20.48 -4.27,0 -7.89,-1.33 -10.93,-4.05 -3.04,-2.72 -4.53,-5.97 -4.53,-9.87 0,-2.88 0.8,-6.35 2.35,-10.29l1.71 -4.21 67.94 -167.61c5.97,-14.35 14.08,-21.54 24.37,-21.54 4.27,0 7.95,1.44 11.04,4.27 3.04,2.88 4.59,6.35 4.59,10.4 0,3.31 -1.33,8.27 -4.05,14.77l-29.6 72.95zm162.75 -6.72l4.85 0c13.17,0 19.78,4.64 19.78,13.97 0,6.4 -2.35,11.36 -7.04,14.93 -4.64,3.57 -11.09,5.33 -19.31,5.33l-11.41 0 -20.9 51.51 17.49 0c13.17,0 19.73,4.64 19.73,13.86 0,6.29 -2.29,11.25 -6.93,14.77 -4.59,3.52 -11.09,5.28 -19.36,5.28l-28 0c-7.89,0 -14.13,-1.81 -18.77,-5.49 -4.64,-3.63 -6.93,-8.59 -6.93,-14.82 0,-3.84 0.96,-8.11 2.83,-12.8l2.93 -6.88 18.4 -45.43 -2.35 0c-11.78,0 -17.65,-4.53 -17.65,-13.65 0,-6.51 2.35,-11.57 6.99,-15.14 4.69,-3.63 11.2,-5.44 19.57,-5.44l7.2 0 8.27 -20.43 1.76 -4.21c4.85,-11.52 12.58,-17.28 23.14,-17.28 4.27,0 7.95,1.44 10.98,4.27 3.09,2.88 4.64,6.35 4.64,10.4 0,3.95 -1.39,8.91 -4.1,14.93l-5.81 12.32zm93.32 6.72c10.88,-5.76 19.89,-8.64 26.98,-8.64 9.97,0 18.19,2.77 24.58,8.37 6.4,5.55 9.6,12.69 9.6,21.33 0,5.17 -1.23,10.88 -3.73,17.01l-16.37 40.95 17.97 0c13.17,0 19.73,4.64 19.73,13.86 0,6.29 -2.35,11.25 -6.99,14.77 -4.64,3.52 -11.09,5.28 -19.46,5.28l-31.41 0c-6.72,0 -12.32,-1.92 -16.9,-5.71 -4.53,-3.79 -6.83,-8.43 -6.83,-13.97 0,-3.73 1.23,-8.53 3.63,-14.35l14.5 -35.25c1.76,-4.48 2.67,-7.84 2.67,-10.13 0,-5.92 -3.95,-8.91 -11.89,-8.91 -10.61,0 -19.57,9.07 -26.88,27.14l-17.49 42.93c-5.55,13.65 -13.7,20.48 -24.58,20.48 -4.27,0 -7.89,-1.33 -10.93,-4.05 -3.04,-2.72 -4.53,-5.97 -4.53,-9.87 0,-2.88 0.8,-6.35 2.35,-10.29l1.71 -4.21 67.94 -167.61c5.97,-14.35 14.08,-21.54 24.37,-21.54 4.27,0 7.95,1.44 11.04,4.27 3.04,2.88 4.59,6.35 4.59,10.4 0,3.31 -1.33,8.27 -4.05,14.77l-29.6 72.95zm156.99 -8.64c15.09,0 27.52,4.8 37.22,14.35 9.76,9.6 14.61,21.76 14.61,36.53 0,11.15 -2.56,22.18 -7.62,33.17 -5.12,10.98 -11.73,19.73 -19.84,26.29 -5.44,4.27 -11.04,7.2 -16.8,8.85 -5.76,1.6 -13.86,2.4 -24.26,2.4 -17.01,0 -28.42,-2.03 -34.39,-6.08 -13.92,-9.6 -20.9,-23.73 -20.9,-42.45 0,-19.78 7.15,-36.9 21.38,-51.35 14.29,-14.45 31.14,-21.7 50.61,-21.7zm-3.79 33.27c-7.68,0 -14.66,3.79 -20.96,11.41 -6.35,7.63 -9.49,16 -9.49,25.17 0,12.1 6.72,18.13 20.21,18.13 7.89,0 13.92,-2.45 18.19,-7.36 7.04,-8 10.56,-17.17 10.56,-27.52 0,-5.92 -1.71,-10.72 -5.12,-14.35 -3.41,-3.68 -7.89,-5.49 -13.39,-5.49zm174.06 54.39l18.13 0c7.2,0 12.32,1.07 15.36,3.2 3.04,2.13 4.53,5.6 4.53,10.51 0,6.29 -2.35,11.25 -6.99,14.82 -4.64,3.57 -11.14,5.39 -19.46,5.39l-28 0c-8.74,0 -14.56,-3.41 -17.49,-10.19 -5.71,6.77 -12.9,10.19 -21.54,10.19l-22.82 0c-9.17,0 -16.74,-2.88 -22.77,-8.59 -6.03,-5.71 -9.07,-12.96 -9.07,-21.7 0,-4.96 1.33,-10.83 4.05,-17.49l21.17 -52.1c5.92,-14.45 14.02,-21.7 24.32,-21.7 4.48,0 8.27,1.44 11.36,4.32 3.15,2.83 4.69,6.35 4.69,10.51 0,3.15 -0.8,6.72 -2.45,10.77l-1.76 4.21 -16.27 40.15 -1.65 4.64c-0.96,2.72 -1.44,4.75 -1.55,6.08 -0.21,4.64 2.83,6.99 9.06,6.99 12.91,0 21.55,-5.23 25.81,-15.62l19.52 -48.21c5.81,-14.61 14.08,-21.92 24.69,-21.92 4.37,0 8.11,1.44 11.25,4.37 3.15,2.93 4.69,6.45 4.69,10.51 0,3.25 -1.33,8.27 -4.05,15.04l-22.77 55.83zm95.78 -42.98l-2.99 7.25c-4.59,10.4 -11.15,15.57 -19.57,15.57 -4.32,0 -8.16,-1.49 -11.52,-4.48 -3.41,-2.93 -5.12,-6.35 -5.12,-10.24 0,-3.63 1.49,-8.48 4.53,-14.56l20.74 -42.23c5.12,-10.13 11.47,-15.2 19.09,-15.2 4.05,0 7.52,1.33 10.45,4 2.93,2.67 4.37,5.81 4.37,9.44 0,0.96 -0.32,2.99 -0.96,6.08 -0.43,2.29 -0.64,4.32 -0.64,6.13 0,6.56 2.45,13.28 7.41,20.1l8.96 12.37c9.12,12.59 13.7,24.8 13.7,36.58 0,13.12 -4.91,24.05 -14.72,32.85 -9.76,8.8 -21.97,13.23 -36.58,13.23l-32.64 0c-13.17,0 -19.73,-4.59 -19.73,-13.7 0,-6.29 2.35,-11.25 6.99,-14.82 4.69,-3.57 11.09,-5.39 19.31,-5.39l18.13 0c14.56,0 21.81,-5.28 21.81,-15.84 0,-3.84 -1.39,-8.42 -4.11,-13.65l-6.93 -13.49zm97.21 31.14c0,7.89 5.87,11.84 17.65,11.84l46.39 0c13.17,0 19.73,4.64 19.73,13.86 0,6.29 -2.35,11.25 -6.99,14.77 -4.64,3.52 -11.15,5.28 -19.46,5.28l-44.21 0c-16.53,0 -29.06,-4.05 -37.7,-12.16 -8.59,-8.11 -12.91,-20 -12.91,-35.62 0,-20.05 6.77,-37.38 20.37,-51.94 13.6,-14.56 29.81,-21.86 48.53,-21.86 13.65,0 24.64,3.57 32.9,10.66 8.27,7.15 12.43,16.53 12.43,28.21 0,14.02 -5.71,24.42 -17.17,31.2 -6.29,3.84 -15.79,5.76 -28.32,5.76l-31.25 0zm7.47 -28.48l17.17 0c11.15,0 16.59,-2.4 16.27,-7.2 -0.32,-5.44 -3.89,-8.16 -10.77,-8.16 -9.6,0 -17.12,5.12 -22.66,15.36zm475.73 -13.86l32.96 78.39c4.32,10.08 9.86,15.14 16.74,15.14l6.24 -0.32 65.32 0c14.35,0 21.49,4.91 21.49,14.72 0,7.2 -2.51,12.8 -7.47,16.74 -5.01,4 -12.1,5.97 -21.38,5.97l-72.04 0c-19.78,0 -33.49,-9.39 -41.22,-28.1l-45.17 -108.79 -20.9 51.62c-10.02,24.74 -17.12,41.44 -21.33,50.18 -4.21,8.69 -9.12,16.74 -14.61,24.16 -19.89,26.93 -44.96,40.37 -75.19,40.37 -21.97,0 -39.78,-6.88 -53.43,-20.64 -13.65,-13.76 -20.48,-31.84 -20.48,-54.13 0,-29.12 10.72,-54.71 32.21,-76.84 11.57,-11.78 26.08,-21.28 43.52,-28.53 17.38,-7.25 34.66,-10.88 51.78,-10.88 8.11,0 14.72,1.87 19.78,5.55 5.07,3.73 7.57,8.53 7.57,14.5 0,6.45 -2.72,11.63 -8.16,15.47 -3.09,2.18 -9.17,3.73 -18.13,4.69 -20.9,1.87 -37.65,6.61 -50.29,14.24 -10.66,6.45 -19.04,14.82 -25.22,25.06 -6.13,10.19 -9.23,20.9 -9.23,32.05 0,11.78 2.99,21.12 9.01,27.94 5.97,6.83 14.13,10.24 24.42,10.24 12.75,0 23.78,-5.39 33.12,-16.1 9.33,-10.72 19.57,-29.81 30.72,-57.22l54.07 -133.37 -16.1 0c-14.45,0 -21.65,-4.96 -21.65,-14.88 0,-7.2 2.51,-12.74 7.52,-16.69 5.01,-3.89 12.16,-5.87 21.33,-5.87l51.89 0c13.54,0 23.46,0.8 29.76,2.35 6.35,1.55 12.37,4.8 18.24,9.71 12.1,10.08 18.13,24.32 18.13,42.66 0,16.64 -4.9,31.46 -14.77,44.47 -9.86,12.96 -22.88,21.65 -39.03,26.13zm-35.14 -29.38l4.59 -0.32c11.95,-0.69 20.85,-2.99 26.72,-6.83 11.36,-7.41 17.01,-17.33 17.01,-29.81 0,-14.34 -6.99,-21.54 -20.9,-21.54l-3.52 0 -23.89 58.5zm133.74 71.73c0,7.89 5.87,11.84 17.65,11.84l46.39 0c13.17,0 19.73,4.64 19.73,13.86 0,6.29 -2.35,11.25 -6.99,14.77 -4.64,3.52 -11.15,5.28 -19.46,5.28l-44.21 0c-16.53,0 -29.06,-4.05 -37.7,-12.16 -8.59,-8.11 -12.91,-20 -12.91,-35.62 0,-20.05 6.77,-37.38 20.37,-51.94 13.6,-14.56 29.81,-21.86 48.53,-21.86 13.65,0 24.64,3.57 32.9,10.66 8.27,7.15 12.43,16.53 12.43,28.21 0,14.02 -5.71,24.42 -17.17,31.2 -6.29,3.84 -15.79,5.76 -28.32,5.76l-31.25 0zm7.47 -28.48l17.17 0c11.15,0 16.59,-2.4 16.27,-7.2 -0.32,-5.44 -3.89,-8.16 -10.77,-8.16 -9.6,0 -17.12,5.12 -22.66,15.36zm116.09 62.02l-40.74 100.26c-5.65,13.81 -13.87,20.74 -24.69,20.74 -4.16,0 -7.73,-1.39 -10.72,-4.16 -2.93,-2.72 -4.43,-6.02 -4.43,-9.92 0,-3.2 1.28,-8.11 3.89,-14.67l75.3 -185.63c3.84,-9.39 10.51,-14.08 20,-14.08 6.56,0 11.78,3.15 15.62,9.39 7.31,-7.52 16.21,-11.31 26.77,-11.31 10.93,0 19.78,4.16 26.56,12.43 6.72,8.27 10.08,19.14 10.08,32.69 0,25.6 -8,46.45 -23.94,62.55 -5.23,5.33 -10.56,8.96 -16.11,10.93 -5.55,1.97 -13.28,2.99 -23.14,2.99 -10.66,0 -17.97,-0.75 -22.02,-2.19 -4,-1.44 -8.16,-4.8 -12.43,-10.03zm12.8 -31.89c2.61,4.53 5.12,7.47 7.47,8.8 2.35,1.33 6.08,2.03 11.2,2.03 7.36,0 13.17,-2.77 17.33,-8.32 8.48,-11.15 12.69,-22.61 12.69,-34.39 0,-10.13 -4.8,-15.2 -14.4,-15.2 -10.56,0 -18.08,6.13 -22.72,18.34 -0.48,1.39 -0.91,2.51 -1.23,3.47l-10.35 25.28zm165.31 -77.48c15.09,0 27.52,4.8 37.22,14.35 9.76,9.6 14.61,21.76 14.61,36.53 0,11.15 -2.56,22.18 -7.62,33.17 -5.12,10.98 -11.73,19.73 -19.84,26.29 -5.44,4.27 -11.04,7.2 -16.8,8.85 -5.76,1.6 -13.86,2.4 -24.26,2.4 -17.01,0 -28.42,-2.03 -34.39,-6.08 -13.92,-9.6 -20.9,-23.73 -20.9,-42.45 0,-19.78 7.15,-36.9 21.38,-51.35 14.29,-14.45 31.14,-21.7 50.61,-21.7zm-3.79 33.27c-7.68,0 -14.66,3.79 -20.96,11.41 -6.35,7.63 -9.49,16 -9.49,25.17 0,12.1 6.72,18.13 20.21,18.13 7.89,0 13.92,-2.45 18.19,-7.36 7.04,-8 10.56,-17.17 10.56,-27.52 0,-5.92 -1.71,-10.72 -5.12,-14.35 -3.41,-3.68 -7.89,-5.49 -13.39,-5.49zm102.97 2.88l-5.28 13.17c-4.8,11.68 -11.04,17.54 -18.72,17.54 -4.64,0 -8.53,-1.39 -11.63,-4.21 -3.15,-2.83 -4.69,-6.35 -4.69,-10.51 0,-2.4 1.12,-6.45 3.41,-12.21l17.65 -43.67c4.21,-10.51 10.24,-15.79 18.08,-15.79 7.68,0 12.37,3.63 14.19,10.93l1.23 4.85c0.64,2.51 1.55,4.1 2.83,4.69 1.23,0.64 4.27,0.96 9.17,0.96l36.58 0c13.6,0 20.37,4.8 20.37,14.4 0,13.23 -8.64,19.84 -25.86,19.84l-1.71 1.55c-16.37,15.94 -24.58,28.26 -24.58,36.96 0,8.69 4.69,13.01 14.08,13.01l19.73 0c13.28,0 19.94,4.59 19.94,13.7 0,6.4 -2.35,11.41 -6.99,14.93 -4.64,3.52 -11.14,5.28 -19.52,5.28l-30.66 0c-10.34,0 -18.82,-3.57 -25.44,-10.77 -6.56,-7.2 -9.87,-16.59 -9.87,-28.05 0,-7.31 1.76,-14.4 5.28,-21.28 3.52,-6.88 9.76,-15.31 18.66,-25.33l-16.26 0zm169.63 -34.24l4.85 0c13.17,0 19.78,4.64 19.78,13.97 0,6.4 -2.35,11.36 -7.04,14.93 -4.64,3.57 -11.09,5.33 -19.31,5.33l-11.41 0 -20.9 51.51 17.49 0c13.17,0 19.73,4.64 19.73,13.86 0,6.29 -2.29,11.25 -6.93,14.77 -4.59,3.52 -11.09,5.28 -19.36,5.28l-28 0c-7.89,0 -14.13,-1.81 -18.77,-5.49 -4.64,-3.63 -6.93,-8.59 -6.93,-14.82 0,-3.84 0.96,-8.11 2.83,-12.8l2.93 -6.88 18.4 -45.43 -2.35 0c-11.78,0 -17.65,-4.53 -17.65,-13.65 0,-6.51 2.35,-11.57 6.99,-15.14 4.69,-3.63 11.2,-5.44 19.57,-5.44l7.2 0 8.27 -20.43 1.76 -4.21c4.85,-11.52 12.58,-17.28 23.14,-17.28 4.27,0 7.95,1.44 10.98,4.27 3.09,2.88 4.64,6.35 4.64,10.4 0,3.95 -1.39,8.91 -4.1,14.93l-5.81 12.32zm55.67 73.91c0,7.89 5.87,11.84 17.65,11.84l46.39 0c13.17,0 19.73,4.64 19.73,13.86 0,6.29 -2.35,11.25 -6.99,14.77 -4.64,3.52 -11.15,5.28 -19.46,5.28l-44.21 0c-16.53,0 -29.06,-4.05 -37.7,-12.16 -8.59,-8.11 -12.91,-20 -12.91,-35.62 0,-20.05 6.77,-37.38 20.37,-51.94 13.6,-14.56 29.81,-21.86 48.53,-21.86 13.65,0 24.64,3.57 32.9,10.66 8.27,7.15 12.43,16.53 12.43,28.21 0,14.02 -5.71,24.42 -17.17,31.2 -6.29,3.84 -15.79,5.76 -28.32,5.76l-31.25 0zm7.47 -28.48l17.17 0c11.15,0 16.59,-2.4 16.27,-7.2 -0.32,-5.44 -3.89,-8.16 -10.77,-8.16 -9.6,0 -17.12,5.12 -22.66,15.36zm121.27 -11.2l-5.28 13.17c-4.8,11.68 -11.04,17.54 -18.72,17.54 -4.64,0 -8.53,-1.39 -11.63,-4.21 -3.15,-2.83 -4.69,-6.35 -4.69,-10.51 0,-2.4 1.12,-6.45 3.41,-12.21l17.65 -43.67c4.21,-10.51 10.24,-15.79 18.08,-15.79 7.68,0 12.37,3.63 14.19,10.93l1.23 4.85c0.64,2.51 1.55,4.1 2.83,4.69 1.23,0.64 4.27,0.96 9.17,0.96l36.58 0c13.6,0 20.37,4.8 20.37,14.4 0,13.23 -8.64,19.84 -25.86,19.84l-1.71 1.55c-16.37,15.94 -24.58,28.26 -24.58,36.96 0,8.69 4.69,13.01 14.08,13.01l19.73 0c13.28,0 19.94,4.59 19.94,13.7 0,6.4 -2.35,11.41 -6.99,14.93 -4.64,3.52 -11.14,5.28 -19.52,5.28l-30.66 0c-10.34,0 -18.82,-3.57 -25.44,-10.77 -6.56,-7.2 -9.87,-16.59 -9.87,-28.05 0,-7.31 1.76,-14.4 5.28,-21.28 3.52,-6.88 9.76,-15.31 18.66,-25.33l-16.26 0z"/>
 </g>
</svg>
